{"title":"Twilight(2008)MPEG-4[DaScubaDude]","uid":15242187,"size":1375959246,"categoryP":"video","categoryS":"movies","magnet":"?xt=urn:btih:2225f0d4efd2f679793bd78c051de6941d9e7000&amp;dn=Twilight%282008%29MPEG-4%5BDaScubaDude%5D&amp;tr=udp%3A%2F%2Ftracker.leechers-paradise.org%3A6969&amp;tr=udp%3A%2F%2Fzer0day.ch%3A1337&amp;tr=udp%3A%2F%2Fopen.demonii.com%3A1337&amp;tr=udp%3A%2F%2Ftracker.coppersurfer.tk%3A6969&amp;tr=udp%3A%2F%2Fexodus.desync.com%3A6969","seeders":0,"leechers":0,"uploader":"dascuba","files":1,"time":1467963122,"description":"Twilight (2008)\r\nPG-13 | 2h 2min | Drama, Fantasy, Romance | 21 November 2008 (USA)\r\nA teenage girl risks everything when she falls in love with a vampire.\r\nDirector: Catherine Hardwicke\r\nWriters: Melissa Rosenberg (screenplay), Stephenie Meyer (novel)\r\nStars: Kristen Stewart, Robert Pattinson, Billy Burke |\r\n\r\nGeneral\r\nComplete name                            : TwilightTWILIGHT_Title1.mp4\r\nFormat                                   : MPEG-4\r\nFormat profile                           : Base Media\r\nCodec ID                                 : isom (isom/iso2/avc1/mp41)\r\nFile size                                : 1.28 GiB\r\nDuration                                 : 2h 1mn\r\nOverall bit rate mode                    : Variable\r\nOverall bit rate                         : 1 507 Kbps\r\nMovie name                               : TWILIGHT\r\nGenre                                    : Fantasy\r\nWriting application                      : Lavf54.6.100\r\n\r\nVideo\r\nID                                       : 1\r\nFormat                                   : AVC\r\nFormat/Info                              : Advanced Video Codec\r\nFormat profile                           :   \r\nFormat settings, CABAC                   : No\r\nFormat settings, ReFrames                : 6 frames\r\nFormat settings, GOP                     : M=1, N=60\r\nCodec ID                                 : avc1\r\nCodec ID/Info                            : Advanced Video Coding\r\nDuration                                 : 2h 1mn\r\nBit rate                                 : 1 229 Kbps\r\nWidth                                    : 720 pixels\r\nHeight                                   : 404 pixels\r\nDisplay aspect ratio                     : 16:9\r\nFrame rate mode                          : Constant\r\nFrame rate                               : 29.970 (30000/1001) fps\r\nColor space                              : YUV\r\nChroma subsampling                       : 4:2:0\r\nBit depth                                : 8 bits\r\nScan type                                : Progressive\r\nBits/(Pixel*Frame)                       : 0.141\r\nStream size                              : 1.05 GiB (82%)\r\n\r\nAudio\r\nID                                       : 2\r\nFormat                                   : AAC\r\nFormat/Info                              : Advanced Audio Codec\r\nFormat profile                           : LC\r\nCodec ID                                 : 40\r\nDuration                                 : 2h 1mn\r\nBit rate mode                            : Variable\r\nBit rate                                 : 271 Kbps\r\nMaximum bit rate                         : 433 Kbps\r\nChannel(s)                               : 2 channels\r\nChannel(s)_Original                      : 6 channels\r\nChannel positions                        : Front: L C R, Side: L R, LFE\r\nSampling rate                            : 44.1 KHz\r\nFrame rate                               : 43.066 fps (1024 spf)\r\nCompression mode                         : Lossy\r\nStream size                              : 236 MiB (18%)\r\nDefault                                  : Yes\r\nAlternate group                          : 1","torrent":{"xt":"urn:btih:2225f0d4efd2f679793bd78c051de6941d9e7000","amp;dn":"Twilight%282008%29MPEG-4%5BDaScubaDude%5D","amp;tr":["udp%3A%2F%2Ftracker.leechers-paradise.org%3A6969","udp%3A%2F%2Fzer0day.ch%3A1337","udp%3A%2F%2Fopen.demonii.com%3A1337","udp%3A%2F%2Ftracker.coppersurfer.tk%3A6969","udp%3A%2F%2Fexodus.desync.com%3A6969"],"infoHash":"2225f0d4efd2f679793bd78c051de6941d9e7000","infoHashBuffer":{"type":"Buffer","data":[34,37,240,212,239,210,246,121,121,59,215,140,5,29,230,148,29,158,112,0]},"announce":[],"urlList":[]}}